<mxfile host="Electron" modified="2023-10-31T12:01:58.045Z" agent="Mozilla/5.0 (Windows NT 10.0; Win64; x64) AppleWebKit/537.36 (KHTML, like Gecko) draw.io/22.0.3 Chrome/114.0.5735.289 Electron/25.8.4 Safari/537.36" etag="yxP-7rcMT5yNUStwl3NK" version="22.0.3" type="device">
  <diagram name="Page-1" id="9HRrxLPhDUyKfn-ots-8">
    <mxGraphModel dx="2058" dy="1188" grid="1" gridSize="10" guides="1" tooltips="1" connect="1" arrows="1" fold="1" page="1" pageScale="1" pageWidth="1654" pageHeight="1169" math="0" shadow="0">
      <root>
        <mxCell id="0" />
        <mxCell id="1" parent="0" />
        <mxCell id="g0PsKwAOe1t_g35rT8We-10" style="edgeStyle=orthogonalEdgeStyle;rounded=0;orthogonalLoop=1;jettySize=auto;html=1;entryX=0.5;entryY=0;entryDx=0;entryDy=0;entryPerimeter=0;" parent="1" source="g0PsKwAOe1t_g35rT8We-4" target="g0PsKwAOe1t_g35rT8We-8" edge="1">
          <mxGeometry relative="1" as="geometry" />
        </mxCell>
        <object placeholders="1" c4Name="Regular User" c4Type="Person" c4Description="A user of the Recipe Social Media app." label="&lt;font style=&quot;font-size: 16px&quot;&gt;&lt;b&gt;%c4Name%&lt;/b&gt;&lt;/font&gt;&lt;div&gt;[%c4Type%]&lt;/div&gt;&lt;br&gt;&lt;div&gt;&lt;font style=&quot;font-size: 11px&quot;&gt;&lt;font color=&quot;#cccccc&quot;&gt;%c4Description%&lt;/font&gt;&lt;/div&gt;" id="g0PsKwAOe1t_g35rT8We-1">
          <mxCell style="html=1;fontSize=11;dashed=0;whiteSpace=wrap;fillColor=#083F75;strokeColor=#06315C;fontColor=#ffffff;shape=mxgraph.c4.person2;align=center;metaEdit=1;points=[[0.5,0,0],[1,0.5,0],[1,0.75,0],[0.75,1,0],[0.5,1,0],[0.25,1,0],[0,0.75,0],[0,0.5,0]];resizable=0;" parent="1" vertex="1">
            <mxGeometry x="727" y="20" width="200" height="180" as="geometry" />
          </mxCell>
        </object>
        <object placeholders="1" c4Type="[RECIPE] Recipe Social Media Mobile/Web App" c4Container="Container" c4Technology="Flutter" c4Description="Provides all of the Recipe Social Media functionality to users via a web browser" label="&lt;font style=&quot;font-size: 16px&quot;&gt;&lt;b&gt;%c4Type%&lt;/b&gt;&lt;/font&gt;&lt;div&gt;[%c4Container%:&amp;nbsp;%c4Technology%]&lt;/div&gt;&lt;br&gt;&lt;div&gt;&lt;font style=&quot;font-size: 11px&quot;&gt;&lt;font color=&quot;#E6E6E6&quot;&gt;%c4Description%&lt;/font&gt;&lt;/div&gt;" id="g0PsKwAOe1t_g35rT8We-4">
          <mxCell style="shape=mxgraph.c4.webBrowserContainer2;whiteSpace=wrap;html=1;boundedLbl=1;rounded=0;labelBackgroundColor=none;strokeColor=#118ACD;fillColor=#23A2D9;strokeColor=#118ACD;strokeColor2=#0E7DAD;fontSize=12;fontColor=#ffffff;align=center;metaEdit=1;points=[[0.5,0,0],[1,0.25,0],[1,0.5,0],[1,0.75,0],[0.5,1,0],[0,0.75,0],[0,0.5,0],[0,0.25,0]];resizable=0;" parent="1" vertex="1">
            <mxGeometry x="707" y="310" width="240" height="160" as="geometry" />
          </mxCell>
        </object>
        <mxCell id="g0PsKwAOe1t_g35rT8We-5" style="edgeStyle=orthogonalEdgeStyle;rounded=0;orthogonalLoop=1;jettySize=auto;html=1;entryX=0.5;entryY=0;entryDx=0;entryDy=0;entryPerimeter=0;exitX=0.5;exitY=1;exitDx=0;exitDy=0;exitPerimeter=0;" parent="1" source="g0PsKwAOe1t_g35rT8We-1" target="g0PsKwAOe1t_g35rT8We-4" edge="1">
          <mxGeometry relative="1" as="geometry">
            <mxPoint x="640" y="310" as="targetPoint" />
          </mxGeometry>
        </mxCell>
        <mxCell id="g0PsKwAOe1t_g35rT8We-7" value="Creates, views, and shares Recipes, &lt;br style=&quot;font-size: 14px;&quot;&gt;and communicates with other users using" style="edgeLabel;html=1;align=center;verticalAlign=middle;resizable=0;points=[];fontSize=14;" parent="g0PsKwAOe1t_g35rT8We-5" vertex="1" connectable="0">
          <mxGeometry x="-0.5421" y="-1" relative="1" as="geometry">
            <mxPoint x="1" y="25" as="offset" />
          </mxGeometry>
        </mxCell>
        <object placeholders="1" c4Name="[RECAPI] API Application" c4Type="Container" c4Technology="C# and .NET" c4Description="Provides all Recipe Social Media functionality via a RESTful API (JSONs)" label="&lt;font style=&quot;font-size: 16px&quot;&gt;&lt;b&gt;%c4Name%&lt;/b&gt;&lt;/font&gt;&lt;div&gt;[%c4Type%: %c4Technology%]&lt;/div&gt;&lt;br&gt;&lt;div&gt;&lt;font style=&quot;font-size: 11px&quot;&gt;&lt;font color=&quot;#E6E6E6&quot;&gt;%c4Description%&lt;/font&gt;&lt;/div&gt;" id="g0PsKwAOe1t_g35rT8We-8">
          <mxCell style="rounded=1;whiteSpace=wrap;html=1;fontSize=11;labelBackgroundColor=none;fillColor=#23A2D9;fontColor=#ffffff;align=center;arcSize=10;strokeColor=#0E7DAD;metaEdit=1;resizable=0;points=[[0.25,0,0],[0.5,0,0],[0.75,0,0],[1,0.25,0],[1,0.5,0],[1,0.75,0],[0.75,1,0],[0.5,1,0],[0.25,1,0],[0,0.75,0],[0,0.5,0],[0,0.25,0]];" parent="1" vertex="1">
            <mxGeometry x="707" y="590" width="240" height="120" as="geometry" />
          </mxCell>
        </object>
        <mxCell id="g0PsKwAOe1t_g35rT8We-9" style="edgeStyle=orthogonalEdgeStyle;rounded=0;orthogonalLoop=1;jettySize=auto;html=1;entryX=0.5;entryY=0;entryDx=0;entryDy=0;entryPerimeter=0;exitX=0.5;exitY=1;exitDx=0;exitDy=0;exitPerimeter=0;" parent="1" source="g0PsKwAOe1t_g35rT8We-4" target="g0PsKwAOe1t_g35rT8We-8" edge="1">
          <mxGeometry relative="1" as="geometry">
            <mxPoint x="640" y="470" as="sourcePoint" />
          </mxGeometry>
        </mxCell>
        <mxCell id="g0PsKwAOe1t_g35rT8We-11" value="Makes API calls to&lt;br style=&quot;font-size: 14px;&quot;&gt;[JSON/HTTP]" style="edgeLabel;html=1;align=center;verticalAlign=middle;resizable=0;points=[];fontSize=14;" parent="g0PsKwAOe1t_g35rT8We-9" vertex="1" connectable="0">
          <mxGeometry x="0.5067" y="1" relative="1" as="geometry">
            <mxPoint x="-1" y="-20" as="offset" />
          </mxGeometry>
        </mxCell>
        <object placeholders="1" c4Type="Database" c4Container="Container" c4Technology="MongoDB" c4Description="Stores user information, recipes, and messages" label="&lt;font style=&quot;font-size: 16px&quot;&gt;&lt;b&gt;%c4Type%&lt;/b&gt;&lt;/font&gt;&lt;div&gt;[%c4Container%:&amp;nbsp;%c4Technology%]&lt;/div&gt;&lt;br&gt;&lt;div&gt;&lt;font style=&quot;font-size: 11px&quot;&gt;&lt;font color=&quot;#E6E6E6&quot;&gt;%c4Description%&lt;/font&gt;&lt;/div&gt;" id="g0PsKwAOe1t_g35rT8We-12">
          <mxCell style="shape=cylinder3;size=15;whiteSpace=wrap;html=1;boundedLbl=1;rounded=0;labelBackgroundColor=none;fillColor=#23A2D9;fontSize=12;fontColor=#ffffff;align=center;strokeColor=#0E7DAD;metaEdit=1;points=[[0.5,0,0],[1,0.25,0],[1,0.5,0],[1,0.75,0],[0.5,1,0],[0,0.75,0],[0,0.5,0],[0,0.25,0]];resizable=0;" parent="1" vertex="1">
            <mxGeometry x="707" y="790" width="240" height="120" as="geometry" />
          </mxCell>
        </object>
        <mxCell id="g0PsKwAOe1t_g35rT8We-14" style="edgeStyle=orthogonalEdgeStyle;rounded=0;orthogonalLoop=1;jettySize=auto;html=1;entryX=0.5;entryY=0;entryDx=0;entryDy=0;entryPerimeter=0;" parent="1" source="g0PsKwAOe1t_g35rT8We-8" target="g0PsKwAOe1t_g35rT8We-12" edge="1">
          <mxGeometry relative="1" as="geometry" />
        </mxCell>
        <mxCell id="oHSIOXRSCMMzAOFIulHE-1" value="Reads from and writes to" style="edgeLabel;html=1;align=center;verticalAlign=middle;resizable=0;points=[];fontSize=14;" parent="g0PsKwAOe1t_g35rT8We-14" vertex="1" connectable="0">
          <mxGeometry x="-0.125" y="1" relative="1" as="geometry">
            <mxPoint x="-1" y="5" as="offset" />
          </mxGeometry>
        </mxCell>
        <object placeholders="1" c4Name="Recipe Social Media System" c4Type="ContainerScopeBoundary" c4Application="Software System" label="&lt;font style=&quot;font-size: 16px&quot;&gt;&lt;b&gt;&lt;div style=&quot;text-align: left&quot;&gt;%c4Name%&lt;/div&gt;&lt;/b&gt;&lt;/font&gt;&lt;div style=&quot;text-align: left&quot;&gt;[%c4Application%]&lt;/div&gt;" id="g0PsKwAOe1t_g35rT8We-15">
          <mxCell style="rounded=1;fontSize=11;whiteSpace=wrap;html=1;dashed=1;arcSize=20;fillColor=none;strokeColor=#666666;fontColor=#737373;labelBackgroundColor=none;align=left;verticalAlign=bottom;labelBorderColor=none;spacingTop=0;spacing=10;dashPattern=8 4;metaEdit=1;rotatable=0;perimeter=rectanglePerimeter;labelPadding=0;allowArrows=0;connectable=0;expand=0;recursiveResize=0;editable=1;pointerEvents=0;absoluteArcSize=1;points=[[0.25,0,0],[0.5,0,0],[0.75,0,0],[1,0.25,0],[1,0.5,0],[1,0.75,0],[0.75,1,0],[0.5,1,0],[0.25,1,0],[0,0.75,0],[0,0.5,0],[0,0.25,0]];" parent="1" vertex="1">
            <mxGeometry x="440" y="285" width="760" height="665" as="geometry" />
          </mxCell>
        </object>
        <object placeholders="1" c4Name="Cloudinary" c4Type="Third-party image storage provider" c4Description="Stores all images used in the Recipe Social Media System" label="&lt;font style=&quot;font-size: 16px&quot;&gt;&lt;b&gt;%c4Name%&lt;/b&gt;&lt;/font&gt;&lt;div&gt;[%c4Type%]&lt;/div&gt;&lt;br&gt;&lt;div&gt;&lt;font style=&quot;font-size: 11px&quot;&gt;&lt;font color=&quot;#cccccc&quot;&gt;%c4Description%&lt;/font&gt;&lt;/div&gt;" id="g0PsKwAOe1t_g35rT8We-16">
          <mxCell style="rounded=1;whiteSpace=wrap;html=1;labelBackgroundColor=none;fillColor=#8C8496;fontColor=#ffffff;align=center;arcSize=10;strokeColor=#736782;metaEdit=1;resizable=0;points=[[0.25,0,0],[0.5,0,0],[0.75,0,0],[1,0.25,0],[1,0.5,0],[1,0.75,0],[0.75,1,0],[0.5,1,0],[0.25,1,0],[0,0.75,0],[0,0.5,0],[0,0.25,0]];" parent="1" vertex="1">
            <mxGeometry x="1260" y="330" width="240" height="120" as="geometry" />
          </mxCell>
        </object>
        <mxCell id="g0PsKwAOe1t_g35rT8We-17" style="edgeStyle=orthogonalEdgeStyle;rounded=0;orthogonalLoop=1;jettySize=auto;html=1;entryX=0;entryY=0.5;entryDx=0;entryDy=0;entryPerimeter=0;dashed=1;dashPattern=8 8;" parent="1" source="g0PsKwAOe1t_g35rT8We-4" target="g0PsKwAOe1t_g35rT8We-16" edge="1">
          <mxGeometry relative="1" as="geometry" />
        </mxCell>
        <mxCell id="g0PsKwAOe1t_g35rT8We-18" value="Save and retrieve &lt;br&gt;images to/from" style="edgeLabel;html=1;align=center;verticalAlign=middle;resizable=0;points=[];fontSize=14;" parent="g0PsKwAOe1t_g35rT8We-17" vertex="1" connectable="0">
          <mxGeometry x="-0.0927" y="-1" relative="1" as="geometry">
            <mxPoint y="-1" as="offset" />
          </mxGeometry>
        </mxCell>
      </root>
    </mxGraphModel>
  </diagram>
</mxfile>
